<svg data-v-423bf9ae="" xmlns="http://www.w3.org/2000/svg" viewBox="0 0 189.57693355182258 60" class="font"><!----><!----><defs data-v-423bf9ae=""><linearGradient data-v-423bf9ae="" gradientTransform="rotate(25)" id="a2bf8391-c393-410a-843d-abe1358c7eda" x1="0%" y1="0%" x2="100%" y2="0%"><stop data-v-423bf9ae="" offset="0%" style="stop-color: rgb(120, 49, 146); stop-opacity: 1;"></stop><stop data-v-423bf9ae="" offset="100%" style="stop-color: rgb(89, 188, 200); stop-opacity: 1;"></stop></linearGradient></defs><g data-v-423bf9ae="" id="1ee19f71-4cc7-43e9-b2b0-ce6dd614e0fd" fill="url(#a2bf8391-c393-410a-843d-abe1358c7eda)" transform="matrix(5.769230980844901,0,0,5.769230980844901,6.288458897517103,-19.55769386869921)"><path d="M2.84 13.41L-0.32 13.79L-0.32 13.79Q-0.92 11.97-1.09 10.32L-1.09 10.32L0.76 9.95L0.76 9.95Q0.92 11.02 1.23 12.10L1.23 12.10L1.23 12.10Q2.77 8.64 4.62 5.71L4.62 5.71L4.62 5.71Q5.28 4.66 5.98 3.74L5.98 3.74L7.43 5.19L7.43 5.19Q5.75 7.52 3.84 11.34L3.84 11.34L3.84 11.34Q3.26 12.47 2.84 13.41L2.84 13.41ZM11.58 13.71L10.35 12.33L10.35 12.33Q9.46 13.17 8.08 13.76L8.08 13.76L6.22 12.15L6.22 12.15Q6.41 10.57 7.20 9.03L7.20 9.03L7.20 9.03Q7.98 7.49 9.21 5.82L9.21 5.82L10.65 6.93L10.65 6.93Q8.69 9.58 8.18 11.75L8.18 11.75L8.18 11.75Q8.19 11.75 8.44 11.67L8.44 11.67L8.44 11.67Q8.68 11.59 9.07 11.37L9.07 11.37L9.07 11.37Q10.07 10.81 10.91 9.76L10.91 9.76L10.91 9.76Q11.89 7.77 12.78 6.51L12.78 6.51L14.28 7.67L14.28 7.67Q12.96 9.60 12.14 11.49L12.14 11.49L12.08 11.52L12.08 11.52Q12.98 11.28 14.04 10.79L14.04 10.79L14.04 10.79Q15.09 10.30 15.39 10.14L15.39 10.14L15.68 11.55L15.68 11.55Q14.81 12.18 12.95 13.10L12.95 13.10L12.95 13.10Q12.19 13.48 11.58 13.71L11.58 13.71ZM20.20 13.71L19.12 12.50L19.12 12.50Q18.02 13.37 16.58 13.76L16.58 13.76L14.84 12.15L14.84 12.15Q14.84 11.05 15.18 9.98L15.18 9.98L15.18 9.98Q15.51 8.92 16.17 8.06L16.17 8.06L16.17 8.06Q16.83 7.21 17.80 6.64L17.80 6.64L17.80 6.64Q18.77 6.08 20.05 5.96L20.05 5.96L20.82 7.14L20.82 7.14Q21.91 5.03 23.11 3.39L23.11 3.39L24.47 4.56L24.47 4.56Q23.09 6.33 21.60 9.58L21.60 9.58L21.60 9.58Q21.15 10.56 20.80 11.49L20.80 11.49L20.80 11.49Q22.30 11.05 23.94 10.14L23.94 10.14L24.25 11.55L24.25 11.55Q23.30 12.26 21.17 13.30L21.17 13.30L21.17 13.30Q20.57 13.58 20.20 13.71L20.20 13.71ZM16.80 11.75L16.80 11.75L16.80 11.75Q18.30 11.34 19.53 9.76L19.53 9.76L19.53 9.76Q19.89 8.96 20.08 7.77L20.08 7.77L20.08 7.77Q18.63 7.91 17.71 9.04L17.71 9.04L17.71 9.04Q16.80 10.16 16.80 11.75ZM26.68 10.68L26.68 10.68L26.68 10.68Q26.03 10.68 25.65 10.58L25.65 10.58L25.65 10.58Q25.42 11.13 25.37 11.94L25.37 11.94L25.37 11.94Q27.78 11.80 30.02 10.86L30.02 10.86L30.02 10.86Q30.77 10.56 31.47 10.14L31.47 10.14L31.77 11.55L31.77 11.55Q30.46 12.38 28.69 13.01L28.69 13.01L28.69 13.01Q26.80 13.68 25.12 13.76L25.12 13.76L23.38 12.15L23.38 12.15Q23.38 10.22 24.43 8.62L24.43 8.62L24.43 8.62Q25.19 7.52 26.14 6.87L26.14 6.87L26.14 6.87Q27.10 6.23 27.99 5.95L27.99 5.95L30.35 7.91L30.35 7.91Q30.00 9.37 29.02 10.02L29.02 10.02L29.02 10.02Q28.04 10.68 26.68 10.68ZM26.24 9.32L26.24 9.32L26.24 9.32Q27.05 9.32 27.65 8.88L27.65 8.88L27.65 8.88Q28.35 8.34 28.35 7.39L28.35 7.39L28.35 7.39Q26.94 8.16 26.24 9.32Z"></path></g><!----><!----></svg>