<svg width="1537" height="785" viewBox="0 0 1537 785" fill="none" xmlns="http://www.w3.org/2000/svg">
<g clip-path="url(#clip0)">
<path d="M1336.4 240.4L1240.4 295.9L1144.3 240.4L1240.4 185L1336.4 240.4Z" fill="#31297F"/>
<path d="M1336.4 240.4V277.4L1240.4 332.9V295.9L1336.4 240.4Z" fill="#131057"/>
<path d="M1144.3 240.4V277.4L1240.4 332.9V295.9L1144.3 240.4Z" fill="#4F48AD"/>
<path opacity="0.5" d="M1336.4 277.2L1240.4 332.8V602.4L1336.4 546.8V277.2Z" fill="url(#paint0_linear)"/>
<path opacity="0.8" d="M1144.3 277.2L1240.4 332.8V602.4L1144.3 546.8V277.2Z" fill="url(#paint1_linear)"/>
<path d="M1295.4 225.6L1283.2 218.6L1266.6 221.2L1262.2 230.8L1274.4 237.9L1291 235.3L1295.4 225.6Z" fill="#158772"/>
<path d="M1289.9 226.5L1281.7 221.8L1270.6 223.5L1267.7 230L1275.8 234.7L1286.9 232.9L1289.9 226.5Z" fill="#3CAC96"/>
<path d="M1284.2 227.4L1280.2 225.1L1274.8 225.9L1273.3 229.1L1277.3 231.4L1282.8 230.5L1284.2 227.4Z" fill="#5FCEB8"/>
<path d="M1274.4 250.9L1262.2 243.8V230.8L1274.4 237.9V250.9Z" fill="#4F48AD"/>
<path d="M1291 235.3V248.3L1274.4 250.9V237.9L1291 235.3Z" fill="#31297F"/>
<path d="M1295.4 238.7L1291 248.3V235.3L1295.4 225.6V238.7Z" fill="#131057"/>
<path d="M1259 203.2L1246.3 195.9L1229.1 198.6L1224.6 208.5L1237.2 215.8L1254.4 213.2L1259 203.2Z" fill="#158772"/>
<path d="M1253.3 204.1L1244.8 199.2L1233.3 201L1230.3 207.7L1238.7 212.5L1250.2 210.7L1253.3 204.1Z" fill="#3CAC96"/>
<path d="M1247.4 205L1243.3 202.6L1237.6 203.5L1236.1 206.7L1240.3 209.1L1245.9 208.3L1247.4 205Z" fill="#5FCEB8"/>
<path d="M1237.2 229.3L1224.6 222V208.5L1237.2 215.8V229.3Z" fill="#4F48AD"/>
<path d="M1254.4 213.2V226.7L1237.2 229.3V215.8L1254.4 213.2Z" fill="#31297F"/>
<path d="M1259 216.7L1254.4 226.7V213.2L1259 203.2V216.7Z" fill="#131057"/>
<path d="M1320.6 484.6V521.6L1272.8 549.4L1240.6 530.8L1320.6 484.6Z" fill="#131057"/>
<path d="M1216.7 664.8L1184.5 646.3L1104.5 692.5L1104.6 655.5L1184.6 609.3L1248.5 646.2L1216.7 664.8Z" fill="#131057"/>
<path d="M1104.6 692.5L880.6 563.2V526.3L1104.7 655.5L1104.6 692.5Z" fill="#4F48AD"/>
<path d="M1184.5 646.3L1184.6 609.3L1248.5 646.2L1216.7 664.8L1184.5 646.3Z" fill="#4F48AD"/>
<path d="M1280.6 553.9L1280.5 590.8L1248.9 609.4L1216.7 590.8L1280.6 553.9Z" fill="#131057"/>
<path d="M1537.1 517L1537 553.9L1134.5 785H1071.5L1537.1 517Z" fill="#131057"/>
<path d="M1165.4 376.3L1166.5 391.6L1163.4 400.3L1148 411L1137.8 409.1L1122.2 399.8V384.1L1124 374.5L1141.2 364.1L1151.4 366.9L1165.4 376.3Z" fill="#3CAC96"/>
<path d="M1165.4 376.3L1162.7 377.5L1147.5 370.1L1141.2 364.1L1151.4 366.9L1165.4 376.3Z" fill="#158772"/>
<path d="M1147.5 370.1L1136.5 382.4L1122.2 384.1L1124 374.5L1141.2 364.1L1147.5 370.1Z" fill="#3CAC96"/>
<path d="M1136.5 382.4L1145.4 397.4L1137.8 409.1L1122.2 399.8V384.1L1136.5 382.4Z" fill="#5FCEB8"/>
<path d="M1145.4 397.4L1160.9 393.9L1163.4 400.3L1148 411L1137.8 409.1L1145.4 397.4Z" fill="#3CAC96"/>
<path d="M1160.9 393.9L1162.7 377.5L1165.4 376.3L1166.5 391.6L1163.4 400.3L1160.9 393.9Z" fill="#158772"/>
<path d="M263.7 480.1L259.5 509.7L247.2 503.6L263.7 480.1Z" fill="#5FCEB8"/>
<path d="M263.7 480.1L259.5 509.7L281.7 504L263.7 480.1Z" fill="#3CAC96"/>
<path d="M281.7 504L263.7 526.3L259.5 509.7L281.7 504Z" fill="#158772"/>
<path d="M263.7 526.3L247.2 503.6L259.5 509.7L263.7 526.3Z" fill="#3CAC96"/>
<path d="M1536.6 517L1536.5 479.9L1280.5 627.7L1216.7 590.8L1280.6 553.9L1240.6 530.8L1320.6 484.6L1288.6 466.1L1208.6 512.3L1056.5 424.5L880.5 526.2L1104.6 655.5L1184.6 609.3L1248.5 646.2L1007.5 785H1071.5L1536.6 517Z" fill="#31297F"/>
<path d="M1232.6 655.5L1184.4 627.8L1144.3 650.9L1144.4 660L1104.7 683.3L1064.4 660L1064.7 650.9L896.5 553.8V535.5L992.5 480L1080.7 530.8L1128.7 503.2L1140.7 510" stroke="#EE6D93" stroke-width="1.5" stroke-miterlimit="10" stroke-linecap="round" stroke-linejoin="round"/>
<path d="M1008.5 545L1096.5 494.4V420.5L1008.5 471.1V545Z" fill="#131057"/>
<path d="M1008.5 545L984.4 531.1V503.5L968.5 475.2V448L1008.5 471.1V545Z" fill="#4F48AD"/>
<path d="M1008.5 471.1L968.5 448L1056.5 397.2L1096.5 420.5L1008.5 471.1Z" fill="#31297F"/>
<path d="M1504.5 498.5C1508.1 496.4 1512.5 499 1512.5 503.1V512.3L1536.5 498.4" stroke="#5FCEB8" stroke-width="2" stroke-miterlimit="10" stroke-linecap="round" stroke-linejoin="round"/>
<path d="M1510 508.1C1510 500.9 1504.9 492.1 1498.7 488.5C1495.5 486.6 1492.6 486.5 1490.5 487.8L1433.6 520.9L1448.4 549.3L1506.4 515.6C1508.6 514.4 1510 511.9 1510 508.1Z" fill="#131057"/>
<path d="M1441.5 526.7C1437.6 524.4 1434.4 526.3 1434.4 530.8C1434.4 535.3 1437.6 540.8 1441.5 543.1C1445.4 545.4 1448.6 543.5 1448.6 539C1448.6 534.4 1445.4 528.9 1441.5 526.7Z" fill="#5FCEB8"/>
<path d="M1441.5 543C1437.6 540.7 1434.4 535.2 1434.4 530.7C1434.4 526.2 1437.6 524.4 1441.5 526.6C1445.4 528.9 1448.6 534.4 1448.6 538.9C1448.6 543.4 1445.4 545.2 1441.5 543ZM1441.5 521.8C1435.2 518.2 1430.1 521.1 1430.1 528.3C1430.1 535.5 1435.2 544.3 1441.4 547.9C1447.7 551.5 1452.8 548.6 1452.8 541.4C1452.9 534.2 1447.8 525.4 1441.5 521.8Z" fill="#4F48AD"/>
<path d="M1251 663.3L1040.5 785" stroke="#5FCEB8" stroke-width="2" stroke-miterlimit="10" stroke-linecap="round" stroke-linejoin="round"/>
<path d="M1440.4 535.4L1435.4 538.3C1433.5 539.4 1432.4 541.4 1432.4 543.6L1432.6 558.5L1286 643.1" stroke="#5FCEB8" stroke-width="2" stroke-miterlimit="10" stroke-linecap="round" stroke-linejoin="round"/>
<path d="M1492.9 523C1494.9 521.9 1496.1 519.4 1496.1 515.9C1496.1 508.9 1491.2 500.4 1485.1 496.9C1482.1 495.2 1479.4 495 1477.4 496" stroke="#5FCEB8" stroke-width="1.5" stroke-miterlimit="10" stroke-linecap="round" stroke-linejoin="round"/>
<path d="M1464.2 539.5C1466.2 538.4 1467.4 535.9 1467.4 532.4C1467.4 525.4 1462.5 516.9 1456.4 513.4C1453.4 511.7 1450.7 511.5 1448.7 512.5" stroke="#5FCEB8" stroke-width="1.5" stroke-miterlimit="10" stroke-linecap="round" stroke-linejoin="round"/>
<path d="M1063.2 540.9C1060.6 539.4 1060.6 537 1063.2 535.5C1065.8 534 1069.9 534 1072.5 535.5C1075.1 537 1075.1 539.4 1072.5 540.9C1069.9 542.4 1065.8 542.4 1063.2 540.9ZM1073.9 534.7C1070.5 532.8 1065.1 532.8 1061.8 534.7C1058.5 536.6 1058.5 539.8 1061.8 541.7C1065.2 543.6 1070.6 543.6 1073.9 541.7C1077.2 539.8 1077.2 536.6 1073.9 534.7Z" fill="#5FCEB8"/>
<path d="M1275.5 648.9C1272.9 647.4 1272.9 645 1275.5 643.5C1278.1 642 1282.2 642 1284.8 643.5C1287.4 645 1287.4 647.4 1284.8 648.9C1282.2 650.4 1278.1 650.4 1275.5 648.9ZM1286.2 642.7C1282.8 640.8 1277.4 640.8 1274.1 642.7C1270.8 644.6 1270.8 647.8 1274.1 649.7C1277.5 651.6 1282.9 651.6 1286.2 649.7C1289.5 647.8 1289.5 644.6 1286.2 642.7Z" fill="#5FCEB8"/>
<path d="M1251.9 662.8C1249.3 661.3 1249.3 658.9 1251.9 657.4C1254.5 655.9 1258.6 655.9 1261.2 657.4C1263.8 658.9 1263.8 661.3 1261.2 662.8C1258.7 664.3 1254.5 664.3 1251.9 662.8ZM1262.6 656.6C1259.2 654.7 1253.8 654.7 1250.5 656.6C1247.2 658.5 1247.2 661.7 1250.5 663.6C1253.9 665.5 1259.3 665.5 1262.6 663.6C1266 661.7 1266 658.5 1262.6 656.6Z" fill="#5FCEB8"/>
<path d="M1152.3 509.9C1149 508 1143.8 508 1140.5 509.9C1137.3 511.8 1137.3 514.8 1140.5 516.7C1143.8 518.6 1149.1 518.6 1152.3 516.7L1151.8 516.4L1151.3 516.1C1150 516.9 1148.2 517.3 1146.5 517.3C1144.7 517.3 1143 516.9 1141.7 516.1C1140.4 515.3 1139.7 514.3 1139.7 513.3C1139.7 512.3 1140.4 511.3 1141.7 510.5C1143 509.7 1144.8 509.3 1146.5 509.3C1148.3 509.3 1150 509.7 1151.3 510.5C1152.6 511.3 1153.3 512.3 1153.3 513.3C1153.3 514.3 1152.6 515.3 1151.3 516.1L1151.8 516.4L1152.3 516.7C1155.6 514.8 1155.6 511.8 1152.3 509.9Z" fill="#EE6D93"/>
<path d="M1124.3 505.6L1123.7 510.4" stroke="white" stroke-width="4" stroke-miterlimit="10" stroke-linecap="round" stroke-linejoin="round"/>
<path d="M1126.6 473.4L1126.2 491.3L1124.3 505.6" stroke="#EE6D93" stroke-width="4" stroke-miterlimit="10" stroke-linecap="round" stroke-linejoin="round"/>
<path d="M1127.2 493.2C1128.41 493.2 1129.4 491.902 1129.4 490.3C1129.4 488.698 1128.41 487.4 1127.2 487.4C1125.98 487.4 1125 488.698 1125 490.3C1125 491.902 1125.98 493.2 1127.2 493.2Z" fill="#F7C6B8"/>
<path d="M1106 526.5C1108.21 526.5 1110 524.709 1110 522.5C1110 520.291 1108.21 518.5 1106 518.5C1103.79 518.5 1102 520.291 1102 522.5C1102 524.709 1103.79 526.5 1106 526.5Z" fill="#F7C6B8"/>
<path d="M1120 526.5C1122.21 526.5 1124 524.709 1124 522.5C1124 520.291 1122.21 518.5 1120 518.5C1117.79 518.5 1116 520.291 1116 522.5C1116 524.709 1117.79 526.5 1120 526.5Z" fill="#F7C6B8"/>
<path d="M1103 498.5H1125V468.3C1125 467.8 1124.7 467.4 1124.2 467.3C1118.6 465.9 1112.8 465.6 1107.1 466.6C1104.7 467 1103 469.1 1103 471.5V498.5Z" fill="url(#paint2_linear)"/>
<path d="M1106.96 479.185C1108.54 478.669 1108.91 475.486 1107.79 472.074C1106.67 468.663 1104.49 466.315 1102.92 466.831C1101.34 467.347 1100.97 470.53 1102.09 473.942C1103.21 477.353 1105.39 479.701 1106.96 479.185Z" fill="#F7C6B8"/>
<path d="M1126.5 467.6L1130 469.5L1125 478.7V468.5C1125 467.8 1125.8 467.3 1126.5 467.6Z" fill="#F7C6B8"/>
<g opacity="0.5">
<g opacity="0.5">
<path opacity="0.5" d="M1114.5 448.5C1110.4 448.5 1107 451.9 1107 456V466.5C1107 468.2 1110.4 469.5 1114.5 469.5C1118.6 469.5 1122 468.2 1122 466.5V456C1122 451.9 1118.6 448.5 1114.5 448.5Z" fill="url(#paint3_linear)"/>
</g>
</g>
<path d="M1114.5 454.5C1116.4 454.5 1118 456.1 1118 458V468.5H1111V458C1111 456.1 1112.6 454.5 1114.5 454.5Z" fill="url(#paint4_linear)"/>
<path d="M1111.3 546.5L1109.8 561.5L1110.6 567.4C1110.7 568 1110.2 568.5 1109.6 568.5H1102.5C1101.7 568.5 1101.3 567.7 1101.6 567L1104.7 561.5L1103.7 546.5H1111.3Z" fill="#F7C6B8"/>
<path d="M1125.8 546.5L1124.3 561.5L1125.1 567.4C1125.2 568 1124.7 568.5 1124.1 568.5H1117C1116.2 568.5 1115.8 567.7 1116.1 567L1119.2 561.5L1118.2 546.5H1125.8Z" fill="#F7C6B8"/>
<path d="M1104.5 546.5L1103 498.5H1125L1124.6 546.5H1119.3L1116 507.5H1112L1110 546.5H1104.5Z" fill="url(#paint5_linear)"/>
<path d="M1125 494.5H1103V498.5H1125V494.5Z" fill="url(#paint6_linear)"/>
<path d="M1102.3 505.6L1101.7 510.4" stroke="white" stroke-width="4" stroke-miterlimit="10" stroke-linecap="round" stroke-linejoin="round"/>
<path d="M1104.6 473.4L1104.2 491.3L1102.3 505.6" stroke="#EE6D93" stroke-width="4" stroke-miterlimit="10" stroke-linecap="round" stroke-linejoin="round"/>
<path d="M1105.2 493.2C1106.41 493.2 1107.4 491.902 1107.4 490.3C1107.4 488.698 1106.41 487.4 1105.2 487.4C1103.98 487.4 1103 488.698 1103 490.3C1103 491.902 1103.98 493.2 1105.2 493.2Z" fill="#F7C6B8"/>
<path d="M1131.5 496.6H1109.5V466.6H1127.5L1131.5 472.1V496.6Z" fill="url(#paint7_linear)"/>
<path d="M1109.7 466.3L1113.7 471.9H1132L1128 466.3H1109.7Z" fill="#F7C6B8"/>
<path opacity="0.6" d="M1390.6 456.6H1370.5V593.4H1390.6V456.6Z" fill="url(#paint8_linear)"/>
<path opacity="0.6" d="M1397.1 513.6H1383.7V593.4H1397.1V513.6Z" fill="url(#paint9_linear)"/>
<path opacity="0.6" d="M514.5 515.2H494.4V595H514.5V515.2Z" fill="url(#paint10_linear)"/>
<path d="M504 501.4L501.5 518.7L494.4 515.2L504 501.4Z" fill="#5FCEB8"/>
<path d="M504 501.4L501.5 518.7L514.5 515.4L504 501.4Z" fill="#158772"/>
<path d="M514.5 515.4L504 528.4L501.5 518.7L514.5 515.4Z" fill="#3CAC96"/>
<path d="M504 528.4L494.4 515.2L501.5 518.7L504 528.4Z" fill="#3CAC96"/>
<path d="M1380.1 442.9L1377.6 460.2L1370.5 456.6L1380.1 442.9Z" fill="#5FCEB8"/>
<path d="M1380.1 442.9L1377.6 460.2L1390.6 456.9L1380.1 442.9Z" fill="#158772"/>
<path d="M1390.6 456.9L1380.1 469.9L1377.6 460.2L1390.6 456.9Z" fill="#3CAC96"/>
<path d="M1380.1 469.9L1370.5 456.6L1377.6 460.2L1380.1 469.9Z" fill="#3CAC96"/>
<path d="M1390.3 504.1L1388.6 515.9L1383.7 513.5L1390.3 504.1Z" fill="#5FCEB8"/>
<path d="M1390.3 504.1L1388.6 515.9L1397.5 513.6L1390.3 504.1Z" fill="#158772"/>
<path d="M1397.5 513.6L1390.3 522.5L1388.6 515.9L1397.5 513.6Z" fill="#3CAC96"/>
<path d="M1390.3 522.5L1383.7 513.5L1388.6 515.9L1390.3 522.5Z" fill="#3CAC96"/>
<path opacity="0.6" d="M375.2 559.6H361.8V639.4H375.2V559.6Z" fill="url(#paint11_linear)"/>
<path d="M368.4 550L366.7 561.8L361.8 559.4L368.4 550Z" fill="#5FCEB8"/>
<path d="M368.4 550L366.7 561.8L375.6 559.6L368.4 550Z" fill="#158772"/>
<path d="M375.6 559.6L368.4 568.5L366.7 561.8L375.6 559.6Z" fill="#3CAC96"/>
<path d="M368.4 568.5L361.8 559.4L366.7 561.8L368.4 568.5Z" fill="#3CAC96"/>
<path opacity="0.6" d="M1327.7 702.5H1293.2V566.7L1327.7 567.1V702.5Z" fill="url(#paint12_linear)"/>
<path d="M1309.8 543.2L1305.5 572.8L1293.2 566.7L1309.8 543.2Z" fill="#5FCEB8"/>
<path d="M1309.8 543.2L1305.5 572.8L1327.7 567.1L1309.8 543.2Z" fill="#3CAC96"/>
<path d="M1327.7 567.1L1309.8 589.4L1305.5 572.8L1327.7 567.1Z" fill="#158772"/>
<path d="M1309.8 589.4L1293.2 566.7L1305.5 572.8L1309.8 589.4Z" fill="#3CAC96"/>
<path d="M1528.5 327.5L1408.5 396.8L1288.5 327.5L1408.5 258.2L1528.5 327.5Z" fill="#31297F"/>
<path d="M1528.5 327.5V364.5L1408.5 433.8V396.8L1528.5 327.5Z" fill="#131057"/>
<path d="M1288.5 327.5V364.5L1408.5 433.8V396.8L1288.5 327.5Z" fill="#4F48AD"/>
<path d="M1480.6 327.5L1408.5 369.1L1336.4 327.5L1408.5 285.9L1480.6 327.5Z" fill="url(#paint13_linear)"/>
<path d="M472.4 189.2L289 295.4L104.4 189.2L289 83L472.4 189.2Z" fill="#31297F"/>
<path d="M408.501 189.2L288.801 258.5L168.301 189.2L288.801 119.9L408.501 189.2Z" fill="#1D185E"/>
<path d="M472.4 189.2L472.6 235.3L289 341.6V295.4L472.4 189.2Z" fill="#131057"/>
<path d="M104.4 189.2V235.1L289 341.6V295.4L104.4 189.2Z" fill="#4F48AD"/>
<path d="M1320.6 484.6L1376.5 378.3L1344.5 359.8L1288.6 466.1L1320.6 484.6Z" fill="#31297F"/>
<path d="M1384.4 355.3L1360.6 369.1L1304.4 475.4L1208.4 530.8L1176.8 512.4L1160.8 521.6L1208.8 549.4L1096.4 613.9L1016.5 567.7L1062.2 541.4" stroke="#5FCEB8" stroke-width="2" stroke-miterlimit="10" stroke-linecap="round" stroke-linejoin="round"/>
<path d="M1376.5 378.3V415.3L1320.6 521.6V484.6L1376.5 378.3Z" fill="#131057"/>
<path d="M288.8 119.9L289 156.3L376.7 207.6L408.5 189.2L288.8 119.9Z" fill="#4F48AD"/>
<path opacity="0.8" d="M408.5 36.7998V189.2L288.8 258.5V106.2L408.5 36.7998Z" fill="url(#paint14_linear)"/>
<path opacity="0.7" d="M169 36.7998V189.2L288.8 258.5V106.2L169 36.7998Z" fill="url(#paint15_linear)"/>
<path opacity="0.5" d="M408.5 273V598.4L288.8 667.7V342.3L408.5 273Z" fill="url(#paint16_linear)"/>
<path d="M169 273V598.4L288.8 667.7V342.3L169 273Z" fill="url(#paint17_linear)"/>
<path d="M1088.5 433.7L1016.5 475.3V512.5L1088.5 470.7V433.7Z" fill="#3CAC96"/>
<path d="M1104.5 433.7L1080.5 447.6V456.8L1104.5 442.7V433.7Z" fill="#5FCEB8"/>
<path d="M1072.5 452.2L1040.5 470.7V480L1072.5 461.6V452.2Z" fill="#5FCEB8"/>
<path d="M1096.5 456.7L1040.5 489.2V498.8L1096.5 466.1V456.7Z" fill="#5FCEB8"/>
<path d="M1480.6 327.5V170.5L1456.5 184.3V267.5L1408.5 294.7L1361.4 267.5V184.8L1336.4 170.5V327.5L1408.5 369.1L1480.6 327.5Z" fill="url(#paint18_linear)"/>
<path d="M1456.5 249.2L1408.5 276.9L1360.5 249.2L1408.5 221.5L1456.5 249.2Z" fill="#31297F"/>
<path d="M1456.5 249.2V267.7L1408.5 295.4V276.9L1456.5 249.2Z" fill="#131057"/>
<path d="M1360.5 249.2V267.7L1408.5 295.4V276.9L1360.5 249.2Z" fill="#4F48AD"/>
<path d="M1456.5 230.5L1408.5 258.2L1429.1 214.6L1456.5 230.5Z" fill="#131057"/>
<path d="M1429.1 214.6L1408.5 258.2L1360.4 230.5L1381 186.9L1429.1 214.6Z" fill="#4F48AD"/>
<path d="M1415.3 206.8L1394.7 250.4" stroke="#5FCEB8" stroke-width="2" stroke-miterlimit="10"/>
<path d="M1404.7 200.3L1384 244.1" stroke="#5FCEB8" stroke-width="2" stroke-miterlimit="10"/>
<path d="M1394.7 194.8L1374.2 238.4" stroke="#5FCEB8" stroke-width="2" stroke-miterlimit="10"/>
<path d="M343.3 90.8999L295.3 118.6L315.9 75.0999L343.3 90.8999Z" fill="#131057"/>
<path d="M315.9 75.0998L295.3 118.6L247.2 90.8998L267.8 47.2998L315.9 75.0998Z" fill="#4F48AD"/>
<path d="M302.1 67.2998L281.5 110.8" stroke="#5FCEB8" stroke-width="2" stroke-miterlimit="10"/>
<path d="M291.4 60.6997L270.8 104.5" stroke="#5FCEB8" stroke-width="2" stroke-miterlimit="10"/>
<path d="M281.5 55.2998L260.9 98.7998" stroke="#5FCEB8" stroke-width="2" stroke-miterlimit="10"/>
<path d="M368.7 581.6L184.9 688L0 581.6L184.9 475.3L368.7 581.6Z" fill="#31297F"/>
<path d="M368.7 581.6L368.8 627.9L184.9 734.4V688L368.7 581.6Z" fill="#131057"/>
<path d="M0 581.6V627.6L184.9 734.4V688L0 581.6Z" fill="#4F48AD"/>
<path d="M211.5 534.9C211.5 534.9 217.5 550.1 220 582.6" stroke="#3CAC96" stroke-width="4" stroke-miterlimit="10" stroke-linecap="round" stroke-linejoin="round"/>
<path d="M220 582.6C220.2 585.2 220.4 587.8 220.5 590.6" stroke="white" stroke-width="4" stroke-miterlimit="10" stroke-linecap="round" stroke-linejoin="round"/>
<path d="M148.5 534.9C148.5 534.9 142.5 550.1 140 582.6" stroke="#3CAC96" stroke-width="4" stroke-miterlimit="10" stroke-linecap="round" stroke-linejoin="round"/>
<path d="M140 582.6C139.8 585.2 139.6 587.8 139.5 590.6" stroke="white" stroke-width="4" stroke-miterlimit="10" stroke-linecap="round" stroke-linejoin="round"/>
<path d="M528.7 433.7L448.7 480.2L368.7 433.7L448.7 387.6L528.7 433.7Z" fill="#31297F"/>
<path d="M528.7 433.7V471L448.7 517.2V480.2L528.7 433.7Z" fill="#131057"/>
<path d="M368.7 433.7V471L448.7 517.2V480.2L368.7 433.7Z" fill="#4F48AD"/>
<path d="M1320.7 365.4C1320.7 359.7 1316.7 352.7 1311.7 349.9C1309.2 348.4 1306.9 348.3 1305.2 349.3L1291.6 357.2L1303.3 379.7L1317.8 371.3C1319.6 370.4 1320.7 368.4 1320.7 365.4Z" fill="#131057"/>
<path d="M1297.9 361.6C1294.8 359.8 1292.2 361.2 1292.2 364.9C1292.2 368.5 1294.7 372.9 1297.9 374.8C1301.1 376.6 1303.6 375.2 1303.6 371.5C1303.6 367.9 1301.1 363.5 1297.9 361.6Z" fill="#5FCEB8"/>
<path d="M1297.9 374.8C1294.8 373 1292.2 368.6 1292.2 364.9C1292.2 361.3 1294.8 359.8 1297.9 361.6C1301.1 363.4 1303.6 367.8 1303.6 371.5C1303.6 375.1 1301 376.6 1297.9 374.8ZM1297.9 357.6C1292.8 354.6 1288.6 357 1288.6 362.9C1288.6 368.8 1292.7 375.9 1297.8 378.9C1302.9 381.9 1307.1 379.5 1307.1 373.6C1307.2 367.7 1303.1 360.5 1297.9 357.6Z" fill="#4F48AD"/>
<path opacity="0.6" d="M1257.9 257.8H1223.4V394.6H1257.9V257.8Z" fill="url(#paint19_linear)"/>
<path d="M1239.9 234.2L1235.6 263.9L1223.4 257.8L1239.9 234.2Z" fill="#5FCEB8"/>
<path d="M1239.9 234.2L1235.6 263.9L1257.8 258.2L1239.9 234.2Z" fill="#3CAC96"/>
<path d="M1257.8 258.2L1239.9 280.4L1235.6 263.9L1257.8 258.2Z" fill="#158772"/>
<path d="M1239.9 280.4L1223.4 257.8L1235.6 263.9L1239.9 280.4Z" fill="#3CAC96"/>
<path d="M1456.5 258.2L1408.5 285.9L1360.4 258.3" stroke="#5FCEB8" stroke-width="2" stroke-miterlimit="10" stroke-linecap="round" stroke-linejoin="round"/>
<path d="M198.5 601.6L191.5 639.6L199.5 646.6H187.5L184.9 601.6H198.5Z" fill="#3CAC96"/>
<path d="M162.5 601.6L169.5 639.6L161.5 646.6H173.5L176.1 601.6H162.5Z" fill="#3CAC96"/>
<path d="M213.5 515.6H147.5V601.6H213.5V515.6Z" fill="url(#paint20_linear)"/>
<path d="M205.5 523.6H154.5V565.6H205.5V523.6Z" fill="#31297F"/>
<path d="M198.5 576.6H194.5V590.6H198.5V576.6Z" fill="#31297F"/>
<path d="M189.501 581.599V585.599H203.501V581.599H189.501Z" fill="#31297F"/>
<path d="M160 582.6C163.038 582.6 165.5 580.138 165.5 577.1C165.5 574.063 163.038 571.6 160 571.6C156.962 571.6 154.5 574.063 154.5 577.1C154.5 580.138 156.962 582.6 160 582.6Z" fill="#31297F"/>
<path d="M179.5 575.6H169.5V585.6H179.5V575.6Z" fill="#31297F"/>
<path d="M179.5 588.6H169.5V591.6H179.5V588.6Z" fill="#31297F"/>
<path d="M164.5 588.6H154.5V591.6H164.5V588.6Z" fill="#31297F"/>
<path d="M167.5 542.6C169.157 542.6 170.5 541.257 170.5 539.6C170.5 537.943 169.157 536.6 167.5 536.6C165.843 536.6 164.5 537.943 164.5 539.6C164.5 541.257 165.843 542.6 167.5 542.6Z" fill="url(#paint21_linear)"/>
<path d="M193.5 542.6C195.157 542.6 196.5 541.257 196.5 539.6C196.5 537.943 195.157 536.6 193.5 536.6C191.843 536.6 190.5 537.943 190.5 539.6C190.5 541.257 191.843 542.6 193.5 542.6Z" fill="url(#paint22_linear)"/>
<path d="M213.5 501.6H147.5V515.6H213.5V501.6Z" fill="url(#paint23_linear)"/>
<path d="M175.3 544.6C176.3 547 178.2 548.6 180.5 548.6C182.8 548.6 184.7 547 185.7 544.6" stroke="#EE6D93" stroke-width="2" stroke-miterlimit="10" stroke-linecap="round" stroke-linejoin="round"/>
<path d="M448.5 424.6C438.5 424.6 424.5 401.7 424.5 385C424.5 368.3 424.5 359.9 424.5 359.9C424.5 352.5 430.5 346.5 437.9 346.5H459.1C466.5 346.5 472.5 352.5 472.5 359.9C472.5 359.9 472.5 368.3 472.5 385C472.5 401.7 458.5 424.6 448.5 424.6Z" fill="url(#paint24_linear)"/>
<path d="M448.5 436.6C438.5 436.6 424.5 413.7 424.5 397C424.5 380.3 424.5 371.9 424.5 371.9C424.5 364.5 430.5 358.5 437.9 358.5H459.1C466.5 358.5 472.5 364.5 472.5 371.9C472.5 371.9 472.5 380.3 472.5 397C472.5 413.7 458.5 436.6 448.5 436.6Z" fill="url(#paint25_linear)"/>
<path d="M437.9 393.6H459.1C462.8 393.6 465.8 390.6 465.8 386.9V372.4C465.8 368.7 462.8 365.7 459.1 365.7H437.9C434.2 365.7 431.2 368.7 431.2 372.4V386.9C431.2 390.6 434.2 393.6 437.9 393.6Z" fill="#31297F"/>
<path d="M457.6 387.6C458.8 387.6 459.7 386.6 459.7 385.5V374.7C459.7 373.5 458.7 372.6 457.6 372.6C456.4 372.6 455.5 373.6 455.5 374.7V385.5C455.5 386.6 456.5 387.6 457.6 387.6Z" fill="url(#paint26_linear)"/>
<path d="M439.6 387.6C440.8 387.6 441.7 386.6 441.7 385.5V374.7C441.7 373.5 440.7 372.6 439.6 372.6C438.4 372.6 437.5 373.6 437.5 374.7V385.5C437.5 386.6 438.5 387.6 439.6 387.6Z" fill="url(#paint27_linear)"/>
<path d="M469.9 411.6H427.7" stroke="#31297F" stroke-width="2" stroke-miterlimit="10" stroke-linecap="round"/>
<path d="M455.5 419.6H441.5C440.4 419.6 439.5 418.7 439.5 417.6V405.6C439.5 404.5 440.4 403.6 441.5 403.6H455.5C456.6 403.6 457.5 404.5 457.5 405.6V417.6C457.5 418.7 456.6 419.6 455.5 419.6Z" fill="url(#paint28_linear)" stroke="#31297F" stroke-width="2" stroke-miterlimit="10"/>
<path d="M0.5 604.6L184.9 710.9L316.4 634.6L432.5 701.6" stroke="#5FCEB8" stroke-width="2" stroke-miterlimit="10" stroke-linecap="round" stroke-linejoin="round"/>
<path d="M656.4 678.4L536.4 747.7L416.4 678.4L536.4 609.2L656.4 678.4Z" fill="#31297F"/>
<path d="M656.4 678.4V715.4L536.4 784.7V747.7L656.4 678.4Z" fill="#131057"/>
<path d="M416.4 678.4V715.4L536.4 784.7V747.7L416.4 678.4Z" fill="#4F48AD"/>
<path d="M616.6 655.3L536.6 609.2L456.5 655.2L536.5 701.5L616.6 655.3Z" fill="#3CAC96"/>
<path d="M616.6 655.3L616.4 673.7L536.5 720V701.5L616.6 655.3Z" fill="#158772"/>
<path d="M536.5 701.5V720L456.5 673.6V655.2L536.5 701.5Z" fill="#5FCEB8"/>
<path d="M584.4 655.3L536.6 683L488.6 655.4L536.6 627.7L584.4 655.3Z" fill="url(#paint29_linear)"/>
<path d="M536.6 627.7V683L584.4 655.3L536.6 627.7Z" fill="url(#paint30_linear)"/>
<path d="M544.4 706.2L552.4 710.8V720" stroke="#5FCEB8" stroke-width="2" stroke-miterlimit="10" stroke-linecap="round" stroke-linejoin="round"/>
<path d="M528.5 706.2L520.5 710.8V720" stroke="#158772" stroke-width="2" stroke-miterlimit="10" stroke-linecap="round" stroke-linejoin="round"/>
<path d="M512.6 696.9L504.6 701.5V710.7" stroke="#158772" stroke-width="2" stroke-miterlimit="10" stroke-linecap="round" stroke-linejoin="round"/>
<path d="M496.6 687.7L488.6 692.3V701.5" stroke="#158772" stroke-width="2" stroke-miterlimit="10" stroke-linecap="round" stroke-linejoin="round"/>
<path d="M480.6 678.5L472.6 683V692.3" stroke="#158772" stroke-width="2" stroke-miterlimit="10" stroke-linecap="round" stroke-linejoin="round"/>
<path d="M464.6 669.2L456.6 673.7V683" stroke="#158772" stroke-width="2" stroke-miterlimit="10" stroke-linecap="round" stroke-linejoin="round"/>
<path d="M560.4 696.9L568.4 701.5V710.7" stroke="#5FCEB8" stroke-width="2" stroke-miterlimit="10" stroke-linecap="round" stroke-linejoin="round"/>
<path d="M576.4 687.7L584.4 692.3V701.5" stroke="#5FCEB8" stroke-width="2" stroke-miterlimit="10" stroke-linecap="round" stroke-linejoin="round"/>
<path d="M592.4 678.5L600.4 683V692.3" stroke="#5FCEB8" stroke-width="2" stroke-miterlimit="10" stroke-linecap="round" stroke-linejoin="round"/>
<path d="M608.5 669.2L616.5 673.7V683" stroke="#5FCEB8" stroke-width="2" stroke-miterlimit="10" stroke-linecap="round" stroke-linejoin="round"/>
<path opacity="0.7" d="M426.1 75.8999H391.8V189.2H426.1V75.8999Z" fill="url(#paint31_linear)"/>
<path opacity="0.7" d="M167.9 136.7H202V23.7999L167.9 23.3999V136.7Z" fill="url(#paint32_linear)"/>
<path d="M184.2 0L179.9 29.5L167.7 23.4L184.2 0Z" fill="url(#paint33_linear)"/>
<path d="M184.2 0L179.9 29.5L202 23.8L184.2 0Z" fill="url(#paint34_linear)"/>
<path d="M202 23.8L184.2 46L179.9 29.5L202 23.8Z" fill="url(#paint35_linear)"/>
<path d="M184.2 45.9999L167.7 23.3999L179.9 29.4999L184.2 45.9999Z" fill="url(#paint36_linear)"/>
<path d="M408.3 52.1001L404 81.6001L391.8 75.4001L408.3 52.1001Z" fill="url(#paint37_linear)"/>
<path d="M408.3 52.1001L404 81.6001L426.1 75.9001L408.3 52.1001Z" fill="url(#paint38_linear)"/>
<path d="M426.1 75.9001L408.3 98.0001L404 81.6001L426.1 75.9001Z" fill="url(#paint39_linear)"/>
<path d="M408.3 98.0001L391.8 75.4001L404 81.6001L408.3 98.0001Z" fill="url(#paint40_linear)"/>
</g>
<defs>
<linearGradient id="paint0_linear" x1="1288.38" y1="525.15" x2="1288.38" y2="297.673" gradientUnits="userSpaceOnUse">
<stop stop-color="#5FCEB8" stop-opacity="0"/>
<stop offset="1" stop-color="#5FCEB8"/>
</linearGradient>
<linearGradient id="paint1_linear" x1="1192.34" y1="550.355" x2="1192.34" y2="307.15" gradientUnits="userSpaceOnUse">
<stop stop-color="#5FCEB8" stop-opacity="0"/>
<stop offset="1" stop-color="#5FCEB8"/>
</linearGradient>
<linearGradient id="paint2_linear" x1="1114" y1="498.58" x2="1114" y2="466.877" gradientUnits="userSpaceOnUse">
<stop stop-color="#F7C6B8"/>
<stop offset="1" stop-color="#EE6D93"/>
</linearGradient>
<linearGradient id="paint3_linear" x1="1114.5" y1="469.561" x2="1114.5" y2="449.059" gradientUnits="userSpaceOnUse">
<stop stop-color="#F7C6B8"/>
<stop offset="1" stop-color="#EE6D93"/>
</linearGradient>
<linearGradient id="paint4_linear" x1="1114.5" y1="455.141" x2="1114.5" y2="468.335" gradientUnits="userSpaceOnUse">
<stop stop-color="#F7C6B8"/>
<stop offset="1" stop-color="#EE6D93"/>
</linearGradient>
<linearGradient id="paint5_linear" x1="1135.01" y1="522.526" x2="1094.44" y2="522.526" gradientUnits="userSpaceOnUse">
<stop stop-color="#F7C6B8"/>
<stop offset="1" stop-color="#EE6D93"/>
</linearGradient>
<linearGradient id="paint6_linear" x1="1121.94" y1="496.526" x2="1106.07" y2="496.526" gradientUnits="userSpaceOnUse">
<stop stop-color="#F7C6B8"/>
<stop offset="1" stop-color="#EE6D93"/>
</linearGradient>
<linearGradient id="paint7_linear" x1="1120.5" y1="454.975" x2="1120.5" y2="504.237" gradientUnits="userSpaceOnUse">
<stop stop-color="#F7C6B8"/>
<stop offset="1" stop-color="#EE6D93"/>
</linearGradient>
<linearGradient id="paint8_linear" x1="1380.54" y1="578.27" x2="1380.54" y2="406.646" gradientUnits="userSpaceOnUse">
<stop stop-color="#5FCEB8" stop-opacity="0"/>
<stop offset="1" stop-color="#5FCEB8"/>
</linearGradient>
<linearGradient id="paint9_linear" x1="1390.39" y1="584.57" x2="1390.39" y2="484.484" gradientUnits="userSpaceOnUse">
<stop stop-color="#5FCEB8" stop-opacity="0"/>
<stop offset="1" stop-color="#5FCEB8"/>
</linearGradient>
<linearGradient id="paint10_linear" x1="504.459" y1="586.092" x2="504.459" y2="486.006" gradientUnits="userSpaceOnUse">
<stop stop-color="#5FCEB8" stop-opacity="0"/>
<stop offset="1" stop-color="#5FCEB8"/>
</linearGradient>
<linearGradient id="paint11_linear" x1="368.457" y1="630.498" x2="368.457" y2="530.412" gradientUnits="userSpaceOnUse">
<stop stop-color="#5FCEB8" stop-opacity="0"/>
<stop offset="1" stop-color="#5FCEB8"/>
</linearGradient>
<linearGradient id="paint12_linear" x1="1310.49" y1="687.495" x2="1310.49" y2="517.026" gradientUnits="userSpaceOnUse">
<stop stop-color="#5FCEB8" stop-opacity="0"/>
<stop offset="1" stop-color="#5FCEB8"/>
</linearGradient>
<linearGradient id="paint13_linear" x1="1408.5" y1="421.599" x2="1408.5" y2="296.582" gradientUnits="userSpaceOnUse">
<stop stop-color="#FDFDFE"/>
<stop offset="1" stop-color="#5FCEB8"/>
</linearGradient>
<linearGradient id="paint14_linear" x1="328.736" y1="122.665" x2="453.736" y2="279.665" gradientUnits="userSpaceOnUse">
<stop stop-color="#F7C6B8" stop-opacity="0"/>
<stop offset="1" stop-color="#EE6D93"/>
</linearGradient>
<linearGradient id="paint15_linear" x1="191.329" y1="236.559" x2="243.329" y2="113.559" gradientUnits="userSpaceOnUse">
<stop stop-color="#F7C6B8"/>
<stop offset="1" stop-color="#EE6D93" stop-opacity="0"/>
</linearGradient>
<linearGradient id="paint16_linear" x1="348.637" y1="573.932" x2="348.637" y2="297.835" gradientUnits="userSpaceOnUse">
<stop stop-color="#5FCEB8" stop-opacity="0"/>
<stop offset="1" stop-color="#5FCEB8"/>
</linearGradient>
<linearGradient id="paint17_linear" x1="228.912" y1="280.599" x2="228.912" y2="601.105" gradientUnits="userSpaceOnUse">
<stop stop-color="#5FCEB8" stop-opacity="0"/>
<stop offset="1" stop-color="#5FCEB8" stop-opacity="0.75"/>
</linearGradient>
<linearGradient id="paint18_linear" x1="1408.5" y1="210.599" x2="1408.5" y2="393.61" gradientUnits="userSpaceOnUse">
<stop stop-color="#5FCEB8" stop-opacity="0"/>
<stop offset="1" stop-color="#5FCEB8"/>
</linearGradient>
<linearGradient id="paint19_linear" x1="1240.6" y1="379.397" x2="1240.6" y2="207.772" gradientUnits="userSpaceOnUse">
<stop stop-color="#5FCEB8" stop-opacity="0"/>
<stop offset="1" stop-color="#5FCEB8"/>
</linearGradient>
<linearGradient id="paint20_linear" x1="180.5" y1="482.278" x2="180.5" y2="623.496" gradientUnits="userSpaceOnUse">
<stop stop-color="#F7C6B8"/>
<stop offset="1" stop-color="#EE6D93"/>
</linearGradient>
<linearGradient id="paint21_linear" x1="167.5" y1="529.262" x2="167.5" y2="543.977" gradientUnits="userSpaceOnUse">
<stop stop-color="#F7C6B8"/>
<stop offset="1" stop-color="#EE6D93"/>
</linearGradient>
<linearGradient id="paint22_linear" x1="193.5" y1="529.262" x2="193.5" y2="543.977" gradientUnits="userSpaceOnUse">
<stop stop-color="#F7C6B8"/>
<stop offset="1" stop-color="#EE6D93"/>
</linearGradient>
<linearGradient id="paint23_linear" x1="180.5" y1="484.479" x2="180.5" y2="518.814" gradientUnits="userSpaceOnUse">
<stop stop-color="#F7C6B8"/>
<stop offset="1" stop-color="#EE6D93"/>
</linearGradient>
<linearGradient id="paint24_linear" x1="448.5" y1="394.056" x2="448.5" y2="341.631" gradientUnits="userSpaceOnUse">
<stop stop-color="#F7C6B8"/>
<stop offset="1" stop-color="#EE6D93"/>
</linearGradient>
<linearGradient id="paint25_linear" x1="448.5" y1="355.668" x2="448.5" y2="434.842" gradientUnits="userSpaceOnUse">
<stop stop-color="#F7C6B8"/>
<stop offset="1" stop-color="#EE6D93"/>
</linearGradient>
<linearGradient id="paint26_linear" x1="457.623" y1="372.715" x2="457.623" y2="388.295" gradientUnits="userSpaceOnUse">
<stop stop-color="#F7C6B8"/>
<stop offset="1" stop-color="#EE6D93"/>
</linearGradient>
<linearGradient id="paint27_linear" x1="439.623" y1="372.715" x2="439.623" y2="388.295" gradientUnits="userSpaceOnUse">
<stop stop-color="#F7C6B8"/>
<stop offset="1" stop-color="#EE6D93"/>
</linearGradient>
<linearGradient id="paint28_linear" x1="448.5" y1="403.027" x2="448.5" y2="419.239" gradientUnits="userSpaceOnUse">
<stop stop-color="#F7C6B8"/>
<stop offset="1" stop-color="#EE6D93"/>
</linearGradient>
<linearGradient id="paint29_linear" x1="536.499" y1="694.462" x2="536.499" y2="651.935" gradientUnits="userSpaceOnUse">
<stop stop-color="#F7C6B8"/>
<stop offset="1" stop-color="#EE6D93"/>
</linearGradient>
<linearGradient id="paint30_linear" x1="560.505" y1="684.403" x2="560.505" y2="626.538" gradientUnits="userSpaceOnUse">
<stop stop-color="#F7C6B8"/>
<stop offset="1" stop-color="#EE6D93"/>
</linearGradient>
<linearGradient id="paint31_linear" x1="408.988" y1="167.939" x2="408.988" y2="74.366" gradientUnits="userSpaceOnUse">
<stop stop-color="#EE6D93" stop-opacity="0"/>
<stop offset="1" stop-color="#F7C6B8"/>
</linearGradient>
<linearGradient id="paint32_linear" x1="184.966" y1="115.446" x2="184.966" y2="21.8725" gradientUnits="userSpaceOnUse">
<stop stop-color="#EE6D93" stop-opacity="0"/>
<stop offset="1" stop-color="#F7C6B8"/>
</linearGradient>
<linearGradient id="paint33_linear" x1="175.956" y1="17.0513" x2="175.956" y2="30.7406" gradientUnits="userSpaceOnUse">
<stop stop-color="#F7C6B8"/>
<stop offset="1" stop-color="#EE6D93"/>
</linearGradient>
<linearGradient id="paint34_linear" x1="190.975" y1="-8.7435" x2="190.975" y2="26.3449" gradientUnits="userSpaceOnUse">
<stop stop-color="#F7C6B8"/>
<stop offset="1" stop-color="#EE6D93"/>
</linearGradient>
<linearGradient id="paint35_linear" x1="190.975" y1="18.6254" x2="190.975" y2="35.2215" gradientUnits="userSpaceOnUse">
<stop stop-color="#F7C6B8"/>
<stop offset="1" stop-color="#EE6D93"/>
</linearGradient>
<linearGradient id="paint36_linear" x1="167.747" y1="34.6708" x2="184.166" y2="34.6708" gradientUnits="userSpaceOnUse">
<stop stop-color="#F7C6B8"/>
<stop offset="1" stop-color="#EE6D93"/>
</linearGradient>
<linearGradient id="paint37_linear" x1="400.052" y1="69.1026" x2="400.052" y2="82.7919" gradientUnits="userSpaceOnUse">
<stop stop-color="#F7C6B8"/>
<stop offset="1" stop-color="#EE6D93"/>
</linearGradient>
<linearGradient id="paint38_linear" x1="415.07" y1="43.3078" x2="415.07" y2="78.3962" gradientUnits="userSpaceOnUse">
<stop stop-color="#F7C6B8"/>
<stop offset="1" stop-color="#EE6D93"/>
</linearGradient>
<linearGradient id="paint39_linear" x1="415.07" y1="70.6767" x2="415.07" y2="87.2728" gradientUnits="userSpaceOnUse">
<stop stop-color="#F7C6B8"/>
<stop offset="1" stop-color="#EE6D93"/>
</linearGradient>
<linearGradient id="paint40_linear" x1="391.842" y1="86.7222" x2="408.262" y2="86.7222" gradientUnits="userSpaceOnUse">
<stop stop-color="#F7C6B8"/>
<stop offset="1" stop-color="#EE6D93"/>
</linearGradient>
<clipPath id="clip0">
<rect width="1537" height="785" fill="white"/>
</clipPath>
</defs>
</svg>
